<mxfile host="Electron" modified="2023-05-27T20:39:36.616Z" agent="Mozilla/5.0 (X11; Linux x86_64) AppleWebKit/537.36 (KHTML, like Gecko) draw.io/21.2.8 Chrome/112.0.5615.165 Electron/24.2.0 Safari/537.36" etag="1h9pYjXsJnHnMJ2xqVsJ" version="21.2.8" type="device">
  <diagram name="Página-1" id="kswGkz0W5gIj8C-Gn8n3">
    <mxGraphModel dx="3367" dy="2120" grid="1" gridSize="12" guides="1" tooltips="1" connect="1" arrows="1" fold="1" page="1" pageScale="1" pageWidth="1700" pageHeight="1100" math="0" shadow="0">
      <root>
        <mxCell id="0" />
        <mxCell id="1" parent="0" />
        <mxCell id="o1wkcMDy3cZdHtqEnzyF-17" style="edgeStyle=orthogonalEdgeStyle;rounded=0;orthogonalLoop=1;jettySize=auto;html=1;entryX=0.5;entryY=1;entryDx=0;entryDy=0;strokeWidth=2;startArrow=diamondThin;startFill=1;endSize=10;startSize=14;" edge="1" parent="1" source="XQ0U445A1wyUe3TwLdx8-23" target="o1wkcMDy3cZdHtqEnzyF-9">
          <mxGeometry relative="1" as="geometry" />
        </mxCell>
        <mxCell id="XQ0U445A1wyUe3TwLdx8-23" value="Animal" style="html=1;whiteSpace=wrap;fontSize=16;" parent="1" vertex="1">
          <mxGeometry x="500" y="-191" width="200" height="40" as="geometry" />
        </mxCell>
        <mxCell id="XQ0U445A1wyUe3TwLdx8-29" style="edgeStyle=orthogonalEdgeStyle;rounded=0;orthogonalLoop=1;jettySize=auto;html=1;entryX=0.5;entryY=1;entryDx=0;entryDy=0;exitX=0.5;exitY=0;exitDx=0;exitDy=0;strokeColor=#00FF00;endSize=10;strokeWidth=2;" parent="1" source="XQ0U445A1wyUe3TwLdx8-24" target="XQ0U445A1wyUe3TwLdx8-23" edge="1">
          <mxGeometry relative="1" as="geometry" />
        </mxCell>
        <mxCell id="XQ0U445A1wyUe3TwLdx8-24" value="Mamífero" style="html=1;whiteSpace=wrap;fontSize=16;" parent="1" vertex="1">
          <mxGeometry x="260" y="-71" width="200" height="40" as="geometry" />
        </mxCell>
        <mxCell id="XQ0U445A1wyUe3TwLdx8-31" style="edgeStyle=orthogonalEdgeStyle;rounded=0;orthogonalLoop=1;jettySize=auto;html=1;exitX=0.5;exitY=0;exitDx=0;exitDy=0;strokeColor=#00FF00;endSize=10;strokeWidth=2;" parent="1" source="XQ0U445A1wyUe3TwLdx8-25" target="XQ0U445A1wyUe3TwLdx8-23" edge="1">
          <mxGeometry relative="1" as="geometry" />
        </mxCell>
        <mxCell id="o1wkcMDy3cZdHtqEnzyF-16" style="edgeStyle=orthogonalEdgeStyle;rounded=0;orthogonalLoop=1;jettySize=auto;html=1;entryX=0;entryY=0.5;entryDx=0;entryDy=0;endSize=10;startSize=14;strokeWidth=2;startArrow=diamondThin;startFill=1;" edge="1" parent="1" source="XQ0U445A1wyUe3TwLdx8-25" target="o1wkcMDy3cZdHtqEnzyF-10">
          <mxGeometry relative="1" as="geometry" />
        </mxCell>
        <mxCell id="XQ0U445A1wyUe3TwLdx8-25" value="Ave" style="html=1;whiteSpace=wrap;fontSize=16;" parent="1" vertex="1">
          <mxGeometry x="740" y="-71" width="200" height="40" as="geometry" />
        </mxCell>
        <mxCell id="XQ0U445A1wyUe3TwLdx8-32" style="edgeStyle=orthogonalEdgeStyle;rounded=0;orthogonalLoop=1;jettySize=auto;html=1;entryX=0.5;entryY=1;entryDx=0;entryDy=0;strokeColor=#00FF00;endSize=10;strokeWidth=2;" parent="1" source="XQ0U445A1wyUe3TwLdx8-26" target="XQ0U445A1wyUe3TwLdx8-24" edge="1">
          <mxGeometry relative="1" as="geometry" />
        </mxCell>
        <mxCell id="XQ0U445A1wyUe3TwLdx8-26" value="Cachorro" style="html=1;whiteSpace=wrap;fontSize=16;" parent="1" vertex="1">
          <mxGeometry x="60" y="49" width="200" height="40" as="geometry" />
        </mxCell>
        <mxCell id="XQ0U445A1wyUe3TwLdx8-33" style="edgeStyle=orthogonalEdgeStyle;rounded=0;orthogonalLoop=1;jettySize=auto;html=1;strokeColor=#00FF00;endSize=10;strokeWidth=2;" parent="1" source="XQ0U445A1wyUe3TwLdx8-27" target="XQ0U445A1wyUe3TwLdx8-24" edge="1">
          <mxGeometry relative="1" as="geometry" />
        </mxCell>
        <mxCell id="o1wkcMDy3cZdHtqEnzyF-11" style="edgeStyle=orthogonalEdgeStyle;rounded=0;orthogonalLoop=1;jettySize=auto;html=1;exitX=1;exitY=0;exitDx=0;exitDy=0;entryX=0.706;entryY=1;entryDx=0;entryDy=0;entryPerimeter=0;strokeWidth=2;endSize=10;startSize=14;startArrow=diamondThin;startFill=1;" edge="1" parent="1" source="XQ0U445A1wyUe3TwLdx8-27" target="o1wkcMDy3cZdHtqEnzyF-8">
          <mxGeometry relative="1" as="geometry" />
        </mxCell>
        <mxCell id="XQ0U445A1wyUe3TwLdx8-27" value="Homem" style="html=1;whiteSpace=wrap;fontSize=16;" parent="1" vertex="1">
          <mxGeometry x="460" y="49" width="200" height="40" as="geometry" />
        </mxCell>
        <mxCell id="XQ0U445A1wyUe3TwLdx8-34" style="edgeStyle=orthogonalEdgeStyle;rounded=0;orthogonalLoop=1;jettySize=auto;html=1;strokeColor=#00FF00;endSize=10;strokeWidth=2;" parent="1" source="XQ0U445A1wyUe3TwLdx8-28" target="XQ0U445A1wyUe3TwLdx8-25" edge="1">
          <mxGeometry relative="1" as="geometry" />
        </mxCell>
        <mxCell id="XQ0U445A1wyUe3TwLdx8-28" value="Beija-Flor" style="html=1;whiteSpace=wrap;fontSize=16;" parent="1" vertex="1">
          <mxGeometry x="740" y="49" width="200" height="40" as="geometry" />
        </mxCell>
        <mxCell id="DtUU681gfaf6m0ihIIxJ-2" style="edgeStyle=orthogonalEdgeStyle;rounded=0;orthogonalLoop=1;jettySize=auto;html=1;entryX=0.5;entryY=1;entryDx=0;entryDy=0;endSize=10;strokeColor=#FFD966;strokeWidth=2;" parent="1" target="XQ0U445A1wyUe3TwLdx8-26" edge="1">
          <mxGeometry relative="1" as="geometry">
            <mxPoint x="396" y="270" as="sourcePoint" />
          </mxGeometry>
        </mxCell>
        <mxCell id="DtUU681gfaf6m0ihIIxJ-3" style="edgeStyle=orthogonalEdgeStyle;rounded=0;orthogonalLoop=1;jettySize=auto;html=1;entryX=0.5;entryY=1;entryDx=0;entryDy=0;endSize=10;strokeColor=#FFD966;strokeWidth=2;" parent="1" target="XQ0U445A1wyUe3TwLdx8-27" edge="1">
          <mxGeometry relative="1" as="geometry">
            <mxPoint x="480" y="249" as="sourcePoint" />
          </mxGeometry>
        </mxCell>
        <mxCell id="DtUU681gfaf6m0ihIIxJ-4" style="edgeStyle=orthogonalEdgeStyle;rounded=0;orthogonalLoop=1;jettySize=auto;html=1;entryX=0.5;entryY=1;entryDx=0;entryDy=0;endSize=10;strokeColor=#FFD966;strokeWidth=2;" parent="1" target="XQ0U445A1wyUe3TwLdx8-28" edge="1">
          <mxGeometry relative="1" as="geometry">
            <mxPoint x="580" y="269" as="sourcePoint" />
          </mxGeometry>
        </mxCell>
        <mxCell id="DtUU681gfaf6m0ihIIxJ-1" value="Tarefa" style="html=1;whiteSpace=wrap;fontSize=16;" parent="1" vertex="1">
          <mxGeometry x="386" y="252" width="200" height="40" as="geometry" />
        </mxCell>
        <mxCell id="o1wkcMDy3cZdHtqEnzyF-18" style="edgeStyle=orthogonalEdgeStyle;rounded=0;orthogonalLoop=1;jettySize=auto;html=1;entryX=0.5;entryY=1;entryDx=0;entryDy=0;entryPerimeter=0;strokeWidth=2;endSize=10;startSize=14;startArrow=diamond;startFill=1;" edge="1" parent="1" source="Vi7BShMBa7FRNtjhAqFD-1" target="Vi7BShMBa7FRNtjhAqFD-8">
          <mxGeometry relative="1" as="geometry" />
        </mxCell>
        <mxCell id="Vi7BShMBa7FRNtjhAqFD-1" value="Animal" style="swimlane;fontStyle=1;align=center;verticalAlign=top;childLayout=stackLayout;horizontal=1;startSize=26;horizontalStack=0;resizeParent=1;resizeParentMax=0;resizeLast=0;collapsible=1;marginBottom=0;whiteSpace=wrap;html=1;fontSize=16;" parent="1" vertex="1">
          <mxGeometry x="460" y="948" width="350" height="516" as="geometry" />
        </mxCell>
        <mxCell id="Vi7BShMBa7FRNtjhAqFD-2" value="- nome : String&lt;br&gt;- idade : int&lt;br&gt;- cor : String&lt;br&gt;- altura : double&lt;br&gt;- peso : double&lt;br&gt;- patas : int&lt;br&gt;- ambiente : String" style="text;strokeColor=none;fillColor=none;align=left;verticalAlign=top;spacingLeft=4;spacingRight=4;overflow=hidden;rotatable=0;points=[[0,0.5],[1,0.5]];portConstraint=eastwest;whiteSpace=wrap;html=1;fontSize=16;" parent="Vi7BShMBa7FRNtjhAqFD-1" vertex="1">
          <mxGeometry y="26" width="350" height="142" as="geometry" />
        </mxCell>
        <mxCell id="Vi7BShMBa7FRNtjhAqFD-3" value="" style="line;strokeWidth=1;fillColor=none;align=left;verticalAlign=middle;spacingTop=-1;spacingLeft=3;spacingRight=3;rotatable=0;labelPosition=right;points=[];portConstraint=eastwest;strokeColor=inherit;" parent="Vi7BShMBa7FRNtjhAqFD-1" vertex="1">
          <mxGeometry y="168" width="350" height="8" as="geometry" />
        </mxCell>
        <mxCell id="Vi7BShMBa7FRNtjhAqFD-4" value="+ Animal(nome : String, idade : int, cor : String, altura : double, peso : double, patas : int)&lt;br&gt;+ getNome() : String&lt;br&gt;+ getIdade() : int&lt;br&gt;+ getCor() : String&lt;br&gt;+ getAltura() : double&lt;br&gt;+ getPeso() : double&lt;br&gt;+ getPatas() : int&lt;br&gt;+ getAmbientes() : String&lt;br&gt;+ setNome(nome : String) : void&lt;br&gt;+ setIdade(idade : int) : void&lt;br&gt;+ setCor(cor : String) : void&lt;br&gt;+ setAltura(altura : double) : void&lt;br&gt;+ setPeso(peso : doble) : void&lt;br&gt;+ setPatas(patas : int) : void&lt;br&gt;+ setAmbientes(ambientes : String) : void&lt;br&gt;+ toString() : String" style="text;strokeColor=none;fillColor=none;align=left;verticalAlign=top;spacingLeft=4;spacingRight=4;overflow=hidden;rotatable=0;points=[[0,0.5],[1,0.5]];portConstraint=eastwest;whiteSpace=wrap;html=1;fontSize=16;" parent="Vi7BShMBa7FRNtjhAqFD-1" vertex="1">
          <mxGeometry y="176" width="350" height="340" as="geometry" />
        </mxCell>
        <mxCell id="Vi7BShMBa7FRNtjhAqFD-5" value="&amp;lt; interface &amp;gt; Animal" style="swimlane;fontStyle=1;align=center;verticalAlign=top;childLayout=stackLayout;horizontal=1;startSize=26;horizontalStack=0;resizeParent=1;resizeParentMax=0;resizeLast=0;collapsible=1;marginBottom=0;whiteSpace=wrap;html=1;fontSize=16;" parent="1" vertex="1">
          <mxGeometry x="460" y="444" width="350" height="336" as="geometry" />
        </mxCell>
        <mxCell id="Vi7BShMBa7FRNtjhAqFD-6" value="+ field: type" style="text;strokeColor=none;fillColor=none;align=left;verticalAlign=top;spacingLeft=4;spacingRight=4;overflow=hidden;rotatable=0;points=[[0,0.5],[1,0.5]];portConstraint=eastwest;whiteSpace=wrap;html=1;fontSize=16;" parent="Vi7BShMBa7FRNtjhAqFD-5" vertex="1">
          <mxGeometry y="26" width="350" height="26" as="geometry" />
        </mxCell>
        <mxCell id="Vi7BShMBa7FRNtjhAqFD-7" value="" style="line;strokeWidth=1;fillColor=none;align=left;verticalAlign=middle;spacingTop=-1;spacingLeft=3;spacingRight=3;rotatable=0;labelPosition=right;points=[];portConstraint=eastwest;strokeColor=inherit;" parent="Vi7BShMBa7FRNtjhAqFD-5" vertex="1">
          <mxGeometry y="52" width="350" height="8" as="geometry" />
        </mxCell>
        <mxCell id="Vi7BShMBa7FRNtjhAqFD-8" value="+ BalancarCauda() : void&lt;br&gt;+ Brigar() : void&lt;br&gt;+ Caminhar() : void&lt;br&gt;+ Correr() : void&lt;br&gt;+ Descansar() : void&lt;br&gt;+ EmitirSom() : void&lt;br&gt;+ Escalada() : void&lt;br&gt;+ Escavacao() : void&lt;br&gt;+ Mover() : void&lt;br&gt;+ Natacao() : void&lt;br&gt;+ Pular() : void&lt;br&gt;+ Rastejar() : void&lt;br&gt;+ Sentar() : void&lt;br&gt;+ Trabalhar() : void" style="text;strokeColor=none;fillColor=none;align=left;verticalAlign=top;spacingLeft=4;spacingRight=4;overflow=hidden;rotatable=0;points=[[0,0.5],[1,0.5]];portConstraint=eastwest;whiteSpace=wrap;html=1;fontSize=16;" parent="Vi7BShMBa7FRNtjhAqFD-5" vertex="1">
          <mxGeometry y="60" width="350" height="276" as="geometry" />
        </mxCell>
        <mxCell id="Vi7BShMBa7FRNtjhAqFD-31" style="edgeStyle=orthogonalEdgeStyle;rounded=0;orthogonalLoop=1;jettySize=auto;html=1;entryX=0.497;entryY=0.997;entryDx=0;entryDy=0;entryPerimeter=0;endSize=10;strokeColor=#00FF00;strokeWidth=2;" parent="1" source="Vi7BShMBa7FRNtjhAqFD-16" target="Vi7BShMBa7FRNtjhAqFD-4" edge="1">
          <mxGeometry relative="1" as="geometry" />
        </mxCell>
        <mxCell id="Vi7BShMBa7FRNtjhAqFD-16" value="Mamifero" style="swimlane;fontStyle=1;align=center;verticalAlign=top;childLayout=stackLayout;horizontal=1;startSize=26;horizontalStack=0;resizeParent=1;resizeParentMax=0;resizeLast=0;collapsible=1;marginBottom=0;whiteSpace=wrap;html=1;fontSize=16;" parent="1" vertex="1">
          <mxGeometry x="36" y="1608" width="350" height="108" as="geometry" />
        </mxCell>
        <mxCell id="Vi7BShMBa7FRNtjhAqFD-17" value="- animal : Animal" style="text;strokeColor=none;fillColor=none;align=left;verticalAlign=top;spacingLeft=4;spacingRight=4;overflow=hidden;rotatable=0;points=[[0,0.5],[1,0.5]];portConstraint=eastwest;whiteSpace=wrap;html=1;fontSize=16;" parent="Vi7BShMBa7FRNtjhAqFD-16" vertex="1">
          <mxGeometry y="26" width="350" height="26" as="geometry" />
        </mxCell>
        <mxCell id="Vi7BShMBa7FRNtjhAqFD-18" value="" style="line;strokeWidth=1;fillColor=none;align=left;verticalAlign=middle;spacingTop=-1;spacingLeft=3;spacingRight=3;rotatable=0;labelPosition=right;points=[];portConstraint=eastwest;strokeColor=inherit;" parent="Vi7BShMBa7FRNtjhAqFD-16" vertex="1">
          <mxGeometry y="52" width="350" height="8" as="geometry" />
        </mxCell>
        <mxCell id="Vi7BShMBa7FRNtjhAqFD-19" value="+ Mamifero(animal : Animal)" style="text;strokeColor=none;fillColor=none;align=left;verticalAlign=top;spacingLeft=4;spacingRight=4;overflow=hidden;rotatable=0;points=[[0,0.5],[1,0.5]];portConstraint=eastwest;whiteSpace=wrap;html=1;fontSize=16;" parent="Vi7BShMBa7FRNtjhAqFD-16" vertex="1">
          <mxGeometry y="60" width="350" height="48" as="geometry" />
        </mxCell>
        <mxCell id="Vi7BShMBa7FRNtjhAqFD-21" value="&amp;lt; interface &amp;gt; Ave" style="swimlane;fontStyle=1;align=center;verticalAlign=top;childLayout=stackLayout;horizontal=1;startSize=26;horizontalStack=0;resizeParent=1;resizeParentMax=0;resizeLast=0;collapsible=1;marginBottom=0;whiteSpace=wrap;html=1;fontSize=16;" parent="1" vertex="1">
          <mxGeometry x="1068" y="1264" width="350" height="156" as="geometry" />
        </mxCell>
        <mxCell id="Vi7BShMBa7FRNtjhAqFD-22" value="+ field: type" style="text;strokeColor=none;fillColor=none;align=left;verticalAlign=top;spacingLeft=4;spacingRight=4;overflow=hidden;rotatable=0;points=[[0,0.5],[1,0.5]];portConstraint=eastwest;whiteSpace=wrap;html=1;fontSize=16;" parent="Vi7BShMBa7FRNtjhAqFD-21" vertex="1">
          <mxGeometry y="26" width="350" height="26" as="geometry" />
        </mxCell>
        <mxCell id="Vi7BShMBa7FRNtjhAqFD-23" value="" style="line;strokeWidth=1;fillColor=none;align=left;verticalAlign=middle;spacingTop=-1;spacingLeft=3;spacingRight=3;rotatable=0;labelPosition=right;points=[];portConstraint=eastwest;strokeColor=inherit;" parent="Vi7BShMBa7FRNtjhAqFD-21" vertex="1">
          <mxGeometry y="52" width="350" height="8" as="geometry" />
        </mxCell>
        <mxCell id="Vi7BShMBa7FRNtjhAqFD-24" value="+ AgitarPenas() : void&lt;br&gt;+ BalancarAsas() : void&lt;br&gt;+ SugarNectar() : void&lt;br&gt;+ Voar() : void" style="text;strokeColor=none;fillColor=none;align=left;verticalAlign=top;spacingLeft=4;spacingRight=4;overflow=hidden;rotatable=0;points=[[0,0.5],[1,0.5]];portConstraint=eastwest;whiteSpace=wrap;html=1;fontSize=16;" parent="Vi7BShMBa7FRNtjhAqFD-21" vertex="1">
          <mxGeometry y="60" width="350" height="96" as="geometry" />
        </mxCell>
        <mxCell id="Vi7BShMBa7FRNtjhAqFD-38" style="edgeStyle=orthogonalEdgeStyle;rounded=0;orthogonalLoop=1;jettySize=auto;html=1;startArrow=none;startFill=0;jumpSize=6;startSize=14;endSize=10;strokeColor=#00FF00;strokeWidth=2;entryX=0.497;entryY=1.001;entryDx=0;entryDy=0;entryPerimeter=0;" parent="1" source="Vi7BShMBa7FRNtjhAqFD-33" target="Vi7BShMBa7FRNtjhAqFD-4" edge="1">
          <mxGeometry relative="1" as="geometry">
            <mxPoint x="660" y="1440" as="targetPoint" />
          </mxGeometry>
        </mxCell>
        <mxCell id="Vi7BShMBa7FRNtjhAqFD-33" value="Ave" style="swimlane;fontStyle=1;align=center;verticalAlign=top;childLayout=stackLayout;horizontal=1;startSize=26;horizontalStack=0;resizeParent=1;resizeParentMax=0;resizeLast=0;collapsible=1;marginBottom=0;whiteSpace=wrap;html=1;fontSize=16;" parent="1" vertex="1">
          <mxGeometry x="912" y="1608" width="350" height="132" as="geometry" />
        </mxCell>
        <mxCell id="Vi7BShMBa7FRNtjhAqFD-34" value="- animal : Animal&lt;br&gt;- corPenas : String&lt;br&gt;" style="text;strokeColor=none;fillColor=none;align=left;verticalAlign=top;spacingLeft=4;spacingRight=4;overflow=hidden;rotatable=0;points=[[0,0.5],[1,0.5]];portConstraint=eastwest;whiteSpace=wrap;html=1;fontSize=16;" parent="Vi7BShMBa7FRNtjhAqFD-33" vertex="1">
          <mxGeometry y="26" width="350" height="46" as="geometry" />
        </mxCell>
        <mxCell id="Vi7BShMBa7FRNtjhAqFD-35" value="" style="line;strokeWidth=1;fillColor=none;align=left;verticalAlign=middle;spacingTop=-1;spacingLeft=3;spacingRight=3;rotatable=0;labelPosition=right;points=[];portConstraint=eastwest;strokeColor=inherit;" parent="Vi7BShMBa7FRNtjhAqFD-33" vertex="1">
          <mxGeometry y="72" width="350" height="8" as="geometry" />
        </mxCell>
        <mxCell id="Vi7BShMBa7FRNtjhAqFD-36" value="+ Mamifero(animal : Animal)&lt;br&gt;+ toString() : String" style="text;strokeColor=none;fillColor=none;align=left;verticalAlign=top;spacingLeft=4;spacingRight=4;overflow=hidden;rotatable=0;points=[[0,0.5],[1,0.5]];portConstraint=eastwest;whiteSpace=wrap;html=1;fontSize=16;" parent="Vi7BShMBa7FRNtjhAqFD-33" vertex="1">
          <mxGeometry y="80" width="350" height="52" as="geometry" />
        </mxCell>
        <mxCell id="Vi7BShMBa7FRNtjhAqFD-52" style="edgeStyle=orthogonalEdgeStyle;rounded=0;orthogonalLoop=1;jettySize=auto;html=1;entryX=0.502;entryY=1.002;entryDx=0;entryDy=0;entryPerimeter=0;strokeColor=#00FF00;endSize=10;strokeWidth=2;" parent="1" source="Vi7BShMBa7FRNtjhAqFD-42" target="Vi7BShMBa7FRNtjhAqFD-19" edge="1">
          <mxGeometry relative="1" as="geometry" />
        </mxCell>
        <mxCell id="o1wkcMDy3cZdHtqEnzyF-6" style="edgeStyle=orthogonalEdgeStyle;rounded=0;orthogonalLoop=1;jettySize=auto;html=1;exitX=1;exitY=0;exitDx=0;exitDy=0;entryX=0.728;entryY=1.021;entryDx=0;entryDy=0;entryPerimeter=0;endSize=10;startSize=14;startArrow=diamondThin;startFill=1;strokeWidth=2;" edge="1" parent="1" source="Vi7BShMBa7FRNtjhAqFD-42" target="o1wkcMDy3cZdHtqEnzyF-4">
          <mxGeometry relative="1" as="geometry" />
        </mxCell>
        <mxCell id="Vi7BShMBa7FRNtjhAqFD-42" value="Humano" style="swimlane;fontStyle=1;align=center;verticalAlign=top;childLayout=stackLayout;horizontal=1;startSize=26;horizontalStack=0;resizeParent=1;resizeParentMax=0;resizeLast=0;collapsible=1;marginBottom=0;whiteSpace=wrap;html=1;fontSize=16;" parent="1" vertex="1">
          <mxGeometry x="432" y="1872" width="350" height="116" as="geometry" />
        </mxCell>
        <mxCell id="Vi7BShMBa7FRNtjhAqFD-43" value="- mamifero : Mamifero" style="text;strokeColor=none;fillColor=none;align=left;verticalAlign=top;spacingLeft=4;spacingRight=4;overflow=hidden;rotatable=0;points=[[0,0.5],[1,0.5]];portConstraint=eastwest;whiteSpace=wrap;html=1;fontSize=16;" parent="Vi7BShMBa7FRNtjhAqFD-42" vertex="1">
          <mxGeometry y="26" width="350" height="34" as="geometry" />
        </mxCell>
        <mxCell id="Vi7BShMBa7FRNtjhAqFD-44" value="" style="line;strokeWidth=1;fillColor=none;align=left;verticalAlign=middle;spacingTop=-1;spacingLeft=3;spacingRight=3;rotatable=0;labelPosition=right;points=[];portConstraint=eastwest;strokeColor=inherit;" parent="Vi7BShMBa7FRNtjhAqFD-42" vertex="1">
          <mxGeometry y="60" width="350" height="8" as="geometry" />
        </mxCell>
        <mxCell id="Vi7BShMBa7FRNtjhAqFD-45" value="+ Humano(mamifero : Mamifero)&lt;br&gt;+ toString() : String" style="text;strokeColor=none;fillColor=none;align=left;verticalAlign=top;spacingLeft=4;spacingRight=4;overflow=hidden;rotatable=0;points=[[0,0.5],[1,0.5]];portConstraint=eastwest;whiteSpace=wrap;html=1;fontSize=16;" parent="Vi7BShMBa7FRNtjhAqFD-42" vertex="1">
          <mxGeometry y="68" width="350" height="48" as="geometry" />
        </mxCell>
        <mxCell id="Vi7BShMBa7FRNtjhAqFD-51" style="edgeStyle=orthogonalEdgeStyle;rounded=0;orthogonalLoop=1;jettySize=auto;html=1;entryX=0.502;entryY=1.002;entryDx=0;entryDy=0;entryPerimeter=0;strokeColor=#00FF00;endSize=10;strokeWidth=2;" parent="1" source="Vi7BShMBa7FRNtjhAqFD-46" target="Vi7BShMBa7FRNtjhAqFD-19" edge="1">
          <mxGeometry relative="1" as="geometry" />
        </mxCell>
        <mxCell id="Vi7BShMBa7FRNtjhAqFD-46" value="Cachorro" style="swimlane;fontStyle=1;align=center;verticalAlign=top;childLayout=stackLayout;horizontal=1;startSize=26;horizontalStack=0;resizeParent=1;resizeParentMax=0;resizeLast=0;collapsible=1;marginBottom=0;whiteSpace=wrap;html=1;fontSize=16;" parent="1" vertex="1">
          <mxGeometry x="-350" y="1872" width="350" height="108" as="geometry" />
        </mxCell>
        <mxCell id="Vi7BShMBa7FRNtjhAqFD-47" value="- mamifero : Mamifero" style="text;strokeColor=none;fillColor=none;align=left;verticalAlign=top;spacingLeft=4;spacingRight=4;overflow=hidden;rotatable=0;points=[[0,0.5],[1,0.5]];portConstraint=eastwest;whiteSpace=wrap;html=1;fontSize=16;" parent="Vi7BShMBa7FRNtjhAqFD-46" vertex="1">
          <mxGeometry y="26" width="350" height="26" as="geometry" />
        </mxCell>
        <mxCell id="Vi7BShMBa7FRNtjhAqFD-48" value="" style="line;strokeWidth=1;fillColor=none;align=left;verticalAlign=middle;spacingTop=-1;spacingLeft=3;spacingRight=3;rotatable=0;labelPosition=right;points=[];portConstraint=eastwest;strokeColor=inherit;" parent="Vi7BShMBa7FRNtjhAqFD-46" vertex="1">
          <mxGeometry y="52" width="350" height="8" as="geometry" />
        </mxCell>
        <mxCell id="Vi7BShMBa7FRNtjhAqFD-49" value="+ Cachorro(mamifero : Mamifero)&lt;br&gt;+ toString() : String" style="text;strokeColor=none;fillColor=none;align=left;verticalAlign=top;spacingLeft=4;spacingRight=4;overflow=hidden;rotatable=0;points=[[0,0.5],[1,0.5]];portConstraint=eastwest;whiteSpace=wrap;html=1;fontSize=16;" parent="Vi7BShMBa7FRNtjhAqFD-46" vertex="1">
          <mxGeometry y="60" width="350" height="48" as="geometry" />
        </mxCell>
        <mxCell id="Vi7BShMBa7FRNtjhAqFD-61" style="edgeStyle=orthogonalEdgeStyle;rounded=0;orthogonalLoop=1;jettySize=auto;html=1;entryX=0.499;entryY=1.006;entryDx=0;entryDy=0;entryPerimeter=0;strokeColor=#00FF00;endSize=10;strokeWidth=2;" parent="1" source="Vi7BShMBa7FRNtjhAqFD-57" target="Vi7BShMBa7FRNtjhAqFD-36" edge="1">
          <mxGeometry relative="1" as="geometry" />
        </mxCell>
        <mxCell id="Vi7BShMBa7FRNtjhAqFD-57" value="BeijaFlor" style="swimlane;fontStyle=1;align=center;verticalAlign=top;childLayout=stackLayout;horizontal=1;startSize=26;horizontalStack=0;resizeParent=1;resizeParentMax=0;resizeLast=0;collapsible=1;marginBottom=0;whiteSpace=wrap;html=1;fontSize=16;" parent="1" vertex="1">
          <mxGeometry x="912" y="1872" width="350" height="108" as="geometry" />
        </mxCell>
        <mxCell id="Vi7BShMBa7FRNtjhAqFD-58" value="- ave : Ave" style="text;strokeColor=none;fillColor=none;align=left;verticalAlign=top;spacingLeft=4;spacingRight=4;overflow=hidden;rotatable=0;points=[[0,0.5],[1,0.5]];portConstraint=eastwest;whiteSpace=wrap;html=1;fontSize=16;" parent="Vi7BShMBa7FRNtjhAqFD-57" vertex="1">
          <mxGeometry y="26" width="350" height="26" as="geometry" />
        </mxCell>
        <mxCell id="Vi7BShMBa7FRNtjhAqFD-59" value="" style="line;strokeWidth=1;fillColor=none;align=left;verticalAlign=middle;spacingTop=-1;spacingLeft=3;spacingRight=3;rotatable=0;labelPosition=right;points=[];portConstraint=eastwest;strokeColor=inherit;" parent="Vi7BShMBa7FRNtjhAqFD-57" vertex="1">
          <mxGeometry y="52" width="350" height="8" as="geometry" />
        </mxCell>
        <mxCell id="Vi7BShMBa7FRNtjhAqFD-60" value="+ BeijaFlor(ave : Ave)&lt;br&gt;+ toString() : String" style="text;strokeColor=none;fillColor=none;align=left;verticalAlign=top;spacingLeft=4;spacingRight=4;overflow=hidden;rotatable=0;points=[[0,0.5],[1,0.5]];portConstraint=eastwest;whiteSpace=wrap;html=1;fontSize=16;" parent="Vi7BShMBa7FRNtjhAqFD-57" vertex="1">
          <mxGeometry y="60" width="350" height="48" as="geometry" />
        </mxCell>
        <mxCell id="Vi7BShMBa7FRNtjhAqFD-63" style="edgeStyle=orthogonalEdgeStyle;rounded=0;orthogonalLoop=1;jettySize=auto;html=1;entryX=0.902;entryY=1.025;entryDx=0;entryDy=0;endSize=10;startSize=14;startArrow=diamondThin;startFill=1;strokeWidth=2;exitX=1;exitY=0.5;exitDx=0;exitDy=0;entryPerimeter=0;" parent="1" source="Vi7BShMBa7FRNtjhAqFD-34" target="Vi7BShMBa7FRNtjhAqFD-24" edge="1">
          <mxGeometry relative="1" as="geometry">
            <Array as="points">
              <mxPoint x="1384" y="1657" />
            </Array>
          </mxGeometry>
        </mxCell>
        <mxCell id="Vi7BShMBa7FRNtjhAqFD-68" style="edgeStyle=orthogonalEdgeStyle;rounded=0;orthogonalLoop=1;jettySize=auto;html=1;entryX=0.549;entryY=1;entryDx=0;entryDy=0;entryPerimeter=0;strokeColor=#FFD966;startSize=14;endSize=10;startArrow=none;startFill=0;strokeWidth=2;" parent="1" source="Vi7BShMBa7FRNtjhAqFD-67" target="Vi7BShMBa7FRNtjhAqFD-60" edge="1">
          <mxGeometry relative="1" as="geometry" />
        </mxCell>
        <mxCell id="Vi7BShMBa7FRNtjhAqFD-69" style="edgeStyle=orthogonalEdgeStyle;rounded=0;orthogonalLoop=1;jettySize=auto;html=1;entryX=0.543;entryY=1;entryDx=0;entryDy=0;entryPerimeter=0;strokeColor=#FFD966;startSize=14;endSize=10;startArrow=none;startFill=0;strokeWidth=2;" parent="1" source="Vi7BShMBa7FRNtjhAqFD-64" target="Vi7BShMBa7FRNtjhAqFD-45" edge="1">
          <mxGeometry relative="1" as="geometry" />
        </mxCell>
        <mxCell id="Vi7BShMBa7FRNtjhAqFD-64" value="Tarefa" style="swimlane;fontStyle=1;align=center;verticalAlign=top;childLayout=stackLayout;horizontal=1;startSize=26;horizontalStack=0;resizeParent=1;resizeParentMax=0;resizeLast=0;collapsible=1;marginBottom=0;whiteSpace=wrap;html=1;fontSize=16;" parent="1" vertex="1">
          <mxGeometry x="325" y="2200" width="350" height="144" as="geometry" />
        </mxCell>
        <mxCell id="Vi7BShMBa7FRNtjhAqFD-65" value="- cachorro : Cachorro&lt;br&gt;- humano : Humano&lt;br&gt;- beijaFlor : BeijaFlor" style="text;strokeColor=none;fillColor=none;align=left;verticalAlign=top;spacingLeft=4;spacingRight=4;overflow=hidden;rotatable=0;points=[[0,0.5],[1,0.5]];portConstraint=eastwest;whiteSpace=wrap;html=1;fontSize=16;" parent="Vi7BShMBa7FRNtjhAqFD-64" vertex="1">
          <mxGeometry y="26" width="350" height="70" as="geometry" />
        </mxCell>
        <mxCell id="Vi7BShMBa7FRNtjhAqFD-66" value="" style="line;strokeWidth=1;fillColor=none;align=left;verticalAlign=middle;spacingTop=-1;spacingLeft=3;spacingRight=3;rotatable=0;labelPosition=right;points=[];portConstraint=eastwest;strokeColor=inherit;" parent="Vi7BShMBa7FRNtjhAqFD-64" vertex="1">
          <mxGeometry y="96" width="350" height="8" as="geometry" />
        </mxCell>
        <mxCell id="Vi7BShMBa7FRNtjhAqFD-67" value="+ toString() : String" style="text;strokeColor=none;fillColor=none;align=left;verticalAlign=top;spacingLeft=4;spacingRight=4;overflow=hidden;rotatable=0;points=[[0,0.5],[1,0.5]];portConstraint=eastwest;whiteSpace=wrap;html=1;fontSize=16;" parent="Vi7BShMBa7FRNtjhAqFD-64" vertex="1">
          <mxGeometry y="104" width="350" height="40" as="geometry" />
        </mxCell>
        <mxCell id="Vi7BShMBa7FRNtjhAqFD-70" style="edgeStyle=orthogonalEdgeStyle;rounded=0;orthogonalLoop=1;jettySize=auto;html=1;entryX=0.491;entryY=1;entryDx=0;entryDy=0;entryPerimeter=0;strokeColor=#FFD966;startSize=14;endSize=10;startArrow=none;startFill=0;strokeWidth=2;" parent="1" source="Vi7BShMBa7FRNtjhAqFD-67" target="Vi7BShMBa7FRNtjhAqFD-49" edge="1">
          <mxGeometry relative="1" as="geometry">
            <mxPoint x="-48" y="2220" as="targetPoint" />
          </mxGeometry>
        </mxCell>
        <mxCell id="o1wkcMDy3cZdHtqEnzyF-1" value="&amp;lt; interface &amp;gt; Humano" style="swimlane;fontStyle=1;align=center;verticalAlign=top;childLayout=stackLayout;horizontal=1;startSize=26;horizontalStack=0;resizeParent=1;resizeParentMax=0;resizeLast=0;collapsible=1;marginBottom=0;whiteSpace=wrap;html=1;fontSize=16;" vertex="1" parent="1">
          <mxGeometry x="528" y="1608" width="350" height="108" as="geometry" />
        </mxCell>
        <mxCell id="o1wkcMDy3cZdHtqEnzyF-2" value="+ field: type" style="text;strokeColor=none;fillColor=none;align=left;verticalAlign=top;spacingLeft=4;spacingRight=4;overflow=hidden;rotatable=0;points=[[0,0.5],[1,0.5]];portConstraint=eastwest;whiteSpace=wrap;html=1;fontSize=16;" vertex="1" parent="o1wkcMDy3cZdHtqEnzyF-1">
          <mxGeometry y="26" width="350" height="26" as="geometry" />
        </mxCell>
        <mxCell id="o1wkcMDy3cZdHtqEnzyF-3" value="" style="line;strokeWidth=1;fillColor=none;align=left;verticalAlign=middle;spacingTop=-1;spacingLeft=3;spacingRight=3;rotatable=0;labelPosition=right;points=[];portConstraint=eastwest;strokeColor=inherit;" vertex="1" parent="o1wkcMDy3cZdHtqEnzyF-1">
          <mxGeometry y="52" width="350" height="8" as="geometry" />
        </mxCell>
        <mxCell id="o1wkcMDy3cZdHtqEnzyF-4" value="+ Escrever() : void&lt;br&gt;+ Ler() : void" style="text;strokeColor=none;fillColor=none;align=left;verticalAlign=top;spacingLeft=4;spacingRight=4;overflow=hidden;rotatable=0;points=[[0,0.5],[1,0.5]];portConstraint=eastwest;whiteSpace=wrap;html=1;fontSize=16;" vertex="1" parent="o1wkcMDy3cZdHtqEnzyF-1">
          <mxGeometry y="60" width="350" height="48" as="geometry" />
        </mxCell>
        <mxCell id="o1wkcMDy3cZdHtqEnzyF-8" value="«interface»&lt;br style=&quot;font-size: 15px;&quot;&gt;&lt;b style=&quot;font-size: 15px;&quot;&gt;Homem&lt;/b&gt;" style="html=1;whiteSpace=wrap;fontSize=15;" vertex="1" parent="1">
          <mxGeometry x="521.5" y="-71.5" width="195" height="41" as="geometry" />
        </mxCell>
        <mxCell id="o1wkcMDy3cZdHtqEnzyF-9" value="«interface»&lt;br style=&quot;font-size: 15px;&quot;&gt;&lt;b&gt;Animal&lt;/b&gt;" style="html=1;whiteSpace=wrap;fontSize=15;" vertex="1" parent="1">
          <mxGeometry x="490" y="-312" width="220" height="41" as="geometry" />
        </mxCell>
        <mxCell id="o1wkcMDy3cZdHtqEnzyF-10" value="«interface»&lt;br style=&quot;font-size: 15px;&quot;&gt;&lt;b&gt;Ave&lt;/b&gt;" style="html=1;whiteSpace=wrap;fontSize=15;" vertex="1" parent="1">
          <mxGeometry x="1036" y="-72" width="220" height="41" as="geometry" />
        </mxCell>
      </root>
    </mxGraphModel>
  </diagram>
</mxfile>
